<?xml version="1.0" encoding="UTF-8"?>
<svg id="Capa_1" data-name="Capa 1" xmlns="http://www.w3.org/2000/svg" viewBox="0 0 85.04 113.39">
  <defs>
    <style>
      .cls-1 {
        letter-spacing: .01em;
      }

      .cls-1, .cls-2, .cls-3, .cls-4, .cls-5, .cls-6, .cls-7, .cls-8 {
        fill: #313f2b;
      }

      .cls-2 {
        letter-spacing: 0em;
      }

      .cls-3, .cls-9, .cls-10 {
        stroke-width: 0px;
      }

      .cls-4 {
        letter-spacing: 0em;
      }

      .cls-5 {
        letter-spacing: 0em;
      }

      .cls-9 {
        fill: #e2e2e1;
      }

      .cls-11 {
        font-family: Montserrat-MediumItalic, Montserrat;
        font-size: 10.04px;
        font-style: italic;
        font-weight: 500;
        stroke: #313f2b;
        stroke-miterlimit: 10;
        stroke-width: .25px;
      }

      .cls-6 {
        letter-spacing: 0em;
      }

      .cls-10, .cls-12 {
        fill: #709665;
      }

      .cls-12 {
        font-family: Davetica-Regular, Davetica;
        font-size: 9.81px;
        letter-spacing: .05em;
      }

      .cls-13 {
        fill: #57724c;
      }

      .cls-8 {
        letter-spacing: 0em;
      }
    </style>
  </defs>
  <rect class="cls-9" y="-.19" width="85.04" height="113.39"/>
  <g>
    <text class="cls-12" transform="translate(28.67 53.62)"><tspan x="0" y="0">Project</tspan></text>
    <text class="cls-11" transform="translate(27.84 63.61)"><tspan class="cls-5" x="0" y="0">O</tspan><tspan class="cls-8" x="8.49" y="0">p</tspan><tspan class="cls-4" x="15.41" y="0">s</tspan><tspan class="cls-13" x="20.44" y="0"> </tspan><tspan class="cls-2" x="23.14" y="0">3</tspan><tspan class="cls-6" x="28.93" y="0">6</tspan><tspan class="cls-1" x="35.21" y="0">0</tspan><tspan class="cls-7" x="42.02" y="0">°</tspan></text>
    <g>
      <path class="cls-3" d="m10.29,58.23c.01-.61.3-1.68,1.05-2.61.07-.09.14-.17.22-.25.14-.14.29-.28.49-.12.21.18.06.33-.06.48-.56.67-.89,1.44-1.04,2.3-.36,1.95.7,3.99,2.51,4.79,1.53.68,3.47.13,4.42-1.25.57-.83.87-1.75.86-2.76,0-.54.04-1.07.11-1.6.2-1.65,1.7-2.93,3.37-3.03,2.78-.18,4.72,1.97,4.95,4.43.21,2.18-1.42,4.39-3.63,4.98-1.57.41-2.96.05-4.22-.93-.17-.13-.32-.3-.47-.47-.1-.12-.1-.26,0-.39.12-.13.25-.11.38-.02.08.05.15.12.21.19,1.91,2.1,6.2,1.38,6.98-2.08.71-3.13-1.87-5.66-4.76-5.03-1.4.3-2.28,1.49-2.34,3.16-.03.74.03,1.47-.18,2.21-.56,2.02-1.91,3.28-3.99,3.5-1.03.11-2-.24-2.84-.86-1.32-.99-2.02-2.42-2.03-4.64Z"/>
      <path class="cls-10" d="m27.19,51.65c.01.95-.35,2.04-1.14,2.97-.14.17-.31.46-.57.25-.25-.2-.04-.42.11-.61,1.35-1.74,1.41-3.96.04-5.68-1.55-1.94-4.91-1.93-6.26.41-.51.89-.62,1.84-.61,2.83,0,.95-.11,1.85-.68,2.65-.99,1.38-2.88,1.8-4.43,1.3-2.27-.73-3.57-2.75-3.32-5.12.22-2.02,1.57-3.53,3.57-4.01,1.76-.43,3.22.17,4.46,1.42.06.06.1.12.15.19.1.15.19.32,0,.46-.17.13-.34.04-.46-.1-.38-.45-.84-.8-1.37-1.06-1.56-.77-3.33-.48-4.63.77-1.11,1.07-1.47,3.03-.82,4.49.76,1.71,2.1,2.59,3.89,2.56,1.76-.03,3.04-1.3,3.06-3.06.01-1.04-.02-2.08.41-3.07,1.37-3.12,5.28-3.46,7.35-1.21.88.95,1.27,2.09,1.27,3.63Z"/>
      <path class="cls-10" d="m22.41,61.6c-.74,0-1.48,0-2.22,0-.54,0-.7-.22-.62-.75.1-.68.52-1.08,1.12-1.35.62-.28.63-.28.35-.89-.14-.31-.18-.66-.52-.87-.14-.08-.15-.27-.08-.43.28-.71.62-1.38,1.3-1.8.38-.24.8-.26,1.17-.05.75.42,1.18,1.11,1.44,1.91.05.14.05.32-.07.4-.39.24-.4.7-.64,1.02-.25.34-.11.5.22.62.6.23,1.09.57,1.29,1.22.21.71.02.98-.71.98-.68,0-1.36,0-2.03,0h0Zm-.08-5.61c-.02.17-.04.28-.04.38-.01.17.02.37-.18.44-.19.07-.29-.07-.37-.21-.05-.07-.11-.13-.19-.07-.18.14-.29.34-.27.57.02.22.21.21.36.21.46,0,.91.01,1.37,0,.18,0,.42.1.52-.1.11-.22-.09-.41-.19-.6-.07-.12-.17-.21-.27-.02-.08.16-.18.27-.37.2-.17-.06-.2-.23-.21-.39-.01-.12.03-.25-.14-.43Zm.12,1.92s0,0,0,0c-.23,0-.47,0-.7,0-.2,0-.3.1-.22.3.13.35.32.65.73.72.4.07.67-.13.85-.45.09-.16.27-.33.16-.51-.1-.15-.32-.06-.49-.08-.11,0-.22,0-.33,0Zm-1.42,3.04c.2-.04.54.12.67-.11.13-.25-.11-.5-.27-.71-.3-.39-.56-.01-.81.1-.22.1-.42.31-.36.56.07.26.35.13.54.16.06.01.13,0,.23,0Zm2.69,0h0c.06,0,.13,0,.19,0,.19-.03.48.1.55-.13.09-.26-.16-.45-.35-.61-.07-.06-.15-.11-.24-.15-.17-.06-.36-.22-.51-.02-.17.22-.38.51-.31.76.07.27.41.1.63.14.02,0,.03,0,.05,0Z"/>
      <path class="cls-3" d="m14.65,48.68c-1.32-.13-2.25,1.38-1.62,2.62.33.65.66,1.29.58,2.06-.03.23-.04.49-.33.49-.31,0-.3-.27-.28-.5.05-.61-.16-1.15-.46-1.66-.75-1.25-.25-2.5.71-3.22,1-.75,2.38-.56,3.25.39.18.19.3.4.37.65.16.56.29,1.12.61,1.62.18.28.11.59-.21.77-.2.11-.22.28-.24.47-.06.59-.24.8-.82.92-.24.05-.41.12-.43.4,0,.16-.09.32-.28.32-.2,0-.34-.17-.34-.34,0-.42-.25-.54-.58-.68-.83-.37-1.08-1.02-.73-1.87.08-.2.06-.34-.05-.52-.32-.54-.15-1.12.39-1.41.48-.26,1.1-.07,1.33.41.26.52.04,1.14-.5,1.4-.11.05-.24.08-.35.14-.44.24-.51.72-.14,1.05.45.41,1.01.49,1.59.45.26-.02.32-.21.33-.44.02-.3.02-.6.32-.8.15-.1.07-.23,0-.33-.22-.31-.28-.66-.36-1.02-.23-.95-.8-1.39-1.76-1.39Z"/>
      <path class="cls-3" d="m22.6,48.61c.52,0,1.04-.02,1.56,0,.83.04,1.27.49,1.27,1.32,0,.6.01,1.2,0,1.8-.02.83-.44,1.23-1.27,1.24-.09,0-.19.01-.28,0-.85-.11-1.58.09-2.16.75-.15.17-.35.35-.62.23-.26-.11-.22-.36-.21-.58,0-.26-.1-.4-.35-.48-.46-.14-.69-.49-.73-.95-.07-.74-.08-1.48,0-2.22.07-.74.49-1.11,1.25-1.13.52-.02,1.04,0,1.56,0,0,0,0,0,0,0Zm2.18,2.19s0,0,0,0c0-.32,0-.63,0-.95,0-.39-.19-.58-.58-.58-1.07,0-2.14,0-3.22,0-.38,0-.55.21-.56.56,0,.66,0,1.32,0,1.99,0,.33.17.54.51.56.23.02.46.07.51.34.07.42.29.25.44.1.39-.4.87-.47,1.39-.44.28.02.57,0,.85,0,.43,0,.64-.22.65-.64,0-.32,0-.63,0-.95Z"/>
      <g>
        <path class="cls-10" d="m14.79,61.45c-.47,0-.95.02-1.42,0-.67-.03-1.09-.44-1.1-1.11-.02-.96-.02-1.92,0-2.89.01-.59.43-1.02,1.02-1.03.82-.02,1.64,0,2.46,0,.21,0,.46.02.46.29,0,.31-.26.31-.48.31-.71,0-1.42,0-2.13,0-.56,0-.67.12-.67.67,0,.84.01,1.67,0,2.51,0,.43.18.6.59.6.88,0,1.77-.01,2.65,0,.38,0,.54-.17.54-.54,0-.5,0-1.01,0-1.51,0-.22,0-.5.29-.52.3-.02.31.27.31.49,0,.58.02,1.17,0,1.75-.03.62-.38.96-.99.99-.5.02-1.01,0-1.51,0,0,0,0,0,0,0Z"/>
        <path class="cls-10" d="m17.61,56.7c-.03.06-.07.17-.14.25-.8.95-1.6,1.91-2.41,2.86-.22.26-.46.32-.73.06-.28-.28-.56-.55-.83-.84-.13-.13-.2-.3-.03-.46.16-.16.31-.05.46.05.26.18.4.66.75.55.28-.09.48-.44.69-.69.55-.63,1.08-1.28,1.62-1.91.11-.13.25-.26.45-.17.11.05.17.14.16.31Z"/>
      </g>
    </g>
  </g>
</svg>